# xmcd CD database file
#
# Track frame offsets:
#	225
#	7992
#	23401
#	35860
#	52552
#	60936
#	78006
#	89177
#	104995
#	114107
#	132784
#	144927
#	167389
#	173070
#	193340
#	200905
#	222838
#	234918
#	254653
#	258963
#	277952
#
# Disc length: 3760 seconds
#
# Revision: 0
# Processed by: cddbd v1.5.1PL0 Copyright (c) Steve Scherf et al.
# Submitted via: CDex 1.51
#
DISCID=190ead15
DTITLE=Ernie Sites - Great American Hero
DYEAR=2000
DGENRE=Country
TTITLE0=Rodeo Cowboy
TTITLE1=Cowboys Dream
TTITLE2=Reminiscin'
TTITLE3=Great American Hero
TTITLE4=New West Coming
TTITLE5=Coyote's Howl
TTITLE6=It's a Cowboy Thing
TTITLE7=Closin' of My Door
TTITLE8=Sure 'Nuff Cowboy
TTITLE9=Gotta Get Back
TTITLE10=Hawk 'N' Cat
TTITLE11=Kansas Line
TTITLE12=Shadows of the Night
TTITLE13=Silver on the Sage
TTITLE14=Alkali Pete
TTITLE15=My Darlin'
TTITLE16=Last Request
TTITLE17=My Walkin' Cane
TTITLE18=Lonesome is Lonesome
TTITLE19=Too Long a Time
TTITLE20=Cowboy's Code
EXTD=YEAR: 2000
EXTT0=
EXTT1=
EXTT2=
EXTT3=
EXTT4=
EXTT5=
EXTT6=
EXTT7=
EXTT8=
EXTT9=
EXTT10=
EXTT11=
EXTT12=
EXTT13=
EXTT14=
EXTT15=
EXTT16=
EXTT17=
EXTT18=
EXTT19=
EXTT20=
PLAYORDER=
